<svg version="1.2" baseProfile="tiny-ps" xmlns="http://www.w3.org/2000/svg" viewBox="0 0 1275 1275" width="1275" height="1275">
	<title>AdobeStock_175336241-ai</title>
	<style>
		tspan { white-space:pre }
		.s0 { mix-blend-mode: multiply;fill: #d8d9da } 
		.s1 { fill: #ffb995 } 
		.s2 { fill: #83ce7f } 
		.s3 { mix-blend-mode: multiply;fill: #acda93 } 
		.s4 { fill: #d8d9da } 
		.s5 { fill: #ffa17d } 
		.s6 { fill: #ffffff } 
		.s7 { fill: #290e04 } 
		.s8 { fill: #362017 } 
		.s9 { fill: #2c2e35 } 
		.s10 { opacity: .3;fill: #77d9e7 } 
		.s11 { fill: #17171f } 
		.s12 { fill: #0c0a0f } 
		.s13 { fill: #ffeb3d } 
		.s14 { fill: #75dbf8 } 
		.s15 { fill: #9ccd45 } 
		.s16 { fill: #ff5b7b } 
		.s17 { fill: #162725 } 
		.s18 { fill: none;stroke: #162725;stroke-width: 6 } 
		.s19 { fill: none;stroke: #162725;stroke-linecap:round;stroke-linejoin:round;stroke-width: 6 } 
	</style>
	<g id="Capa 1">
		<g id="&lt;Group&gt;">
			<path id="&lt;Path&gt;" class="s0" d="m956.91 1096.18c0 42.53-143.11 77-319.65 77c-176.54 0-319.65-34.48-319.65-77c0-42.53 143.11-77 319.65-77c176.54 0 319.65 34.47 319.65 77z" />
			<g id="&lt;Group&gt;">
				<g id="&lt;Group&gt;">
					<g id="&lt;Group&gt;">
						<path id="&lt;Path&gt;" class="s1" d="m780.92 966.59l-42.2-116.05l47.81-15.43l46.17 131.48h-51.78z" />
					</g>
					<path id="&lt;Path&gt;" class="s2" d="m823.88 824.91l28.35 91.46l-87.83 30.2l-31.98-107.84l91.46-13.82z" />
					<path id="&lt;Path&gt;" class="s1" d="m437.37 966.59l32.82-127.86h56.59l-35.64 127.86h-53.78z" />
					<path id="&lt;Path&gt;" class="s2" d="m542.11 838.73l-31.98 107.84l-87.84-30.2l28.35-91.46l91.46 13.82z" />
					<path id="&lt;Path&gt;" class="s3" d="m542.11 838.73l-31.98 107.84l-25.18-8.99c18.58-51.85 20.44-62.13 32.4-102.59l24.76 3.74z" />
					<g id="&lt;Group&gt;">
						<g id="&lt;Group&gt;">
							<path id="&lt;Path&gt;" class="s1" d="m656.25 730.03h-52.94v-105.02h52.94v105.02z" />
						</g>
						<g id="&lt;Group&gt;" style="mix-blend-mode: multiply">
							<path id="&lt;Path&gt;" class="s4" d="m603.3 681.41v-56.4h52.94v30.29c-4.87 5.67-10.24 10.61-16.23 14.58c-11.35 7.55-24.06 10.7-36.71 11.53z" />
						</g>
					</g>
					<g id="&lt;Group&gt;">
						<g id="&lt;Group&gt;">
							<path id="&lt;Path&gt;" class="s1" d="" />
						</g>
						<g id="&lt;Group&gt;">
							<path id="&lt;Path&gt;" class="s1" d="m746.18 475.08l-14.24 115.98c-1.49 20.27-9.26 32.96-23.31 38.07c-37.55 20.66-55.02 30.84-52.41 30.55c-7.78 5.68-16.7 8.21-26.77 7.57c-10.07 0.64-19-1.89-26.77-7.57c3.05 0.29-14.2-9.89-51.75-30.55c-14.05-5.12-21.82-17.81-23.31-38.07l-14.9-115.98c-3.47-101.17 32.19-151.49 106.98-150.96c3.35-0.37 6.57-0.6 9.75-0.8c3.18 0.2 6.4 0.43 9.75 0.8c79.24-4.12 114.9 46.2 106.97 150.96z" />
						</g>
						<g id="&lt;Group&gt;">
							<path id="&lt;Path&gt;" class="s1" d="m769.48 535.28c-2.29 17.35-15.08 29.96-28.56 28.17c-13.49-1.77-22.57-17.28-20.28-34.62c2.29-17.33 15.08-29.95 28.56-28.16c13.48 1.78 22.56 17.27 20.27 34.6z" />
						</g>
						<g id="&lt;Group&gt;">
							<path id="&lt;Path&gt;" class="s1" d="m518.64 563.45c-13.48 1.79-26.27-10.82-28.55-28.17c-2.29-17.33 6.78-32.83 20.27-34.6c13.49-1.79 26.27 10.83 28.56 28.16c2.28 17.34-6.8 32.84-20.28 34.62z" />
						</g>
						<g id="&lt;Group&gt;">
							<g id="&lt;Group&gt;">
								<path id="&lt;Path&gt;" class="s5" d="m646.87 555.82c-1.6 0.63-3.2 1.3-4.81 1.88c-1.59 0.64-3.32 0.99-5.02 1.46c-1.7 0.52-3.46 0.66-5.21 0.95c-0.87 0.17-1.78 0.12-2.68 0.17c-0.91 0-1.81 0.12-2.73 0.02l-2.77-0.31c-0.92-0.14-1.84-0.45-2.77-0.69c-0.94-0.19-1.81-0.72-2.72-1.09c-0.93-0.35-1.71-1.04-2.57-1.58c-0.8-0.63-1.53-1.37-2.22-2.13c-0.63-0.82-1.28-1.64-1.74-2.57c-0.53-0.9-0.89-1.88-1.21-2.86c-0.31-1.04-0.52-1.92-0.61-3.26l-0.01-0.23l0.08-0.38c1.14-5.35 2.14-10.74 3.41-16.06c1.19-5.34 2.47-10.67 3.84-15.97c0.64-2.66 1.41-5.3 2.12-7.94c0.7-2.65 1.48-5.28 2.27-7.91c1.56-5.26 3.23-10.5 5.17-15.68c-0.4 5.52-1.07 10.97-1.84 16.41c-0.38 2.72-0.77 5.43-1.23 8.13c-0.45 2.7-0.86 5.42-1.38 8.1c-0.96 5.39-2.02 10.77-3.16 16.12c-1.06 5.37-2.4 10.68-3.59 16.02l0.07-0.61c0 0.36 0.08 1.18 0.24 1.78c0.17 0.64 0.35 1.31 0.66 1.9c0.25 0.63 0.65 1.17 1.01 1.74c0.43 0.52 0.87 1.04 1.38 1.5c0.57 0.39 1 0.97 1.67 1.27c0.65 0.32 1.2 0.81 1.94 1.03c0.71 0.25 1.39 0.58 2.14 0.78l2.29 0.53c0.76 0.2 1.59 0.21 2.38 0.33c0.81 0.07 1.61 0.24 2.44 0.2c1.64-0.07 3.33 0.16 4.98-0.04c1.66-0.17 3.35-0.14 5.06-0.4c1.7-0.25 3.42-0.41 5.13-0.61z" />
							</g>
						</g>
						<path id="&lt;Path&gt;" class="s6" d="m664.36 580.95c-2.8 19.82-18.59 35-37.65 35c-19.07 0-34.87-15.18-37.66-35h75.32z" />
						<g id="&lt;Group&gt;">
							<g id="&lt;Group&gt;">
								<g id="&lt;Group&gt;">
									<path id="&lt;Path&gt;" class="s7" d="m690.7 493.44c0 6.51-4.32 11.79-9.65 11.79c-5.33 0-9.65-5.28-9.65-11.79c0-6.52 4.32-11.8 9.65-11.8c5.33 0 9.65 5.29 9.65 11.8z" />
									<path id="&lt;Path&gt;" class="s8" d="m717.3 470.79c-12.69-10.57-33.27-11.42-61.73-2.55c-3.98-0.27-5.77-4.07-5.36-11.4c-0.11-3.44 1.45-5.47 4.7-6.1c47.15-10.17 67.95-3.49 62.4 20.05z" />
								</g>
							</g>
							<g id="&lt;Group&gt;">
								<g id="&lt;Group&gt;">
									<path id="&lt;Path&gt;" class="s7" d="m578.51 481.64c5.33 0 9.66 5.29 9.66 11.8c0 6.51-4.33 11.79-9.66 11.79c-5.33 0-9.65-5.28-9.65-11.79c0-6.52 4.32-11.8 9.65-11.8z" />
									<path id="&lt;Path&gt;" class="s8" d="m604.66 450.74c3.24 0.62 4.81 2.66 4.69 6.1c0.41 7.33-1.38 11.13-5.36 11.4c-28.46-8.88-49.04-8.03-61.73 2.55c-5.55-23.53 15.24-30.22 62.4-20.05z" />
								</g>
							</g>
						</g>
						<path id="&lt;Path&gt;" class="s8" d="m539.46 406.61c-5.61 10.91-9.84 45.74-12.68 104.48h-4.7c-1.05-5.22-3.07-8.66-6.06-10.3c-3.89-1.22-7.49-0.78-10.8 1.32c-13.51-111.11 0.92-168.89 43.3-173.34c6.13-33.72 42.04-47.05 107.73-39.99c97.19 11.76 130.96 83.45 101.31 215.08c-4.6-2.88-8.77-3.97-12.5-3.26l-3.3 10.5h-3.04c-7.06-56.02-13.2-90.97-18.44-104.86c-1.79-11.96-9.11-18.3-21.96-19.03c-48.45-2.83-70.36 1.26-65.74 12.27c-2.92-13-27.21-16.84-72.87-11.5c-11.65 2.3-18.4 8.51-20.26 18.64z" />
						<g id="&lt;Group&gt;">
							<g id="&lt;Group&gt;">
								<path id="&lt;Compound Path&gt;" fill-rule="evenodd" class="s9" d="m732.08 501.86c-2.55 11.3-6.64 33.99-22.45 41.68c-5.82 2.84-12.35 3.23-18.69 3.84c-1.46 0.14-2.93 0.23-4.4 0.29v-0.04c-1.47-0.06-2.94-0.16-4.41-0.29c-6.33-0.62-12.86-1.01-18.69-3.84c-15.81-7.69-19.89-30.39-22.45-41.68c-3.03-13.43 4.85-19.28 9.83-21.81c9.82-4.48 23.17-5.68 35.71-5.51v0.04c12.54-0.17 25.89 1.03 35.71 5.51c4.98 2.53 12.86 8.38 9.83 21.81zm-5.66-5.72c0.27-5.31-4.96-9.38-9.61-11.5c-8.33-3.8-19.63-4.83-30.27-4.7v-0.04c-10.64-0.13-21.94 0.91-30.27 4.71c-4.65 2.12-9.88 6.19-9.61 11.49c-0.36 11.64 3.42 23.23 11.34 34.79c2.75 4.29 7.68 6.76 12.02 8.53c5.09 2.08 10.9 2.76 16.53 2.86v0.04c5.63-0.1 11.43-0.78 16.53-2.85c4.33-1.77 9.26-4.25 12.02-8.53c7.92-11.56 11.7-23.15 11.34-34.79z" />
								<path id="&lt;Compound Path&gt;" fill-rule="evenodd" class="s9" d="m620.78 501.86c-2.55 11.3-6.64 33.99-22.45 41.68c-5.83 2.84-12.35 3.23-18.69 3.84c-1.47 0.14-2.94 0.23-4.41 0.29v-0.04c-1.47-0.06-2.94-0.16-4.4-0.29c-6.34-0.62-12.87-1.01-18.69-3.84c-15.81-7.69-19.9-30.39-22.45-41.68c-3.03-13.43 4.85-19.28 9.83-21.81c9.82-4.48 23.17-5.68 35.71-5.51v0.04c12.54-0.17 25.89 1.03 35.71 5.51c4.98 2.53 12.86 8.38 9.83 21.81zm-5.66-5.72c0.26-5.31-4.96-9.38-9.62-11.5c-8.32-3.8-19.63-4.83-30.27-4.7v-0.04c-10.64-0.13-21.94 0.91-30.27 4.71c-4.65 2.12-9.88 6.19-9.61 11.49c-0.36 11.64 3.42 23.23 11.34 34.79c2.75 4.29 7.68 6.76 12.02 8.53c5.09 2.08 10.9 2.76 16.52 2.86v0.04c5.63-0.1 11.43-0.78 16.52-2.85c4.33-1.77 9.27-4.25 12.02-8.53c7.92-11.56 11.7-23.15 11.34-34.79z" />
								<path id="&lt;Path&gt;" class="s9" d="m728.04 489.56l-14.5-12.47l47.68 4.55l-2.58 16.77l-28.16 3.62l-2.44-12.47z" />
								<path id="&lt;Path&gt;" class="s9" d="m530.11 502.48l-25.46-5.26l-1.57-15.59l43.98-4.09l-14.5 12.47l-2.44 12.47z" />
								<path id="&lt;Path&gt;" class="s9" d="m615.67 486.18c12.13-2.55 21.36-2.55 27.7 0l-1.72 18.56c-8.22-8.15-15.39-8.15-21.5 0l-4.48-18.56z" />
							</g>
							<g id="&lt;Group&gt;">
								<path id="&lt;Path&gt;" class="s10" d="m535.36 496.14c-0.27-5.31 4.96-9.38 9.61-11.5c8.33-3.8 19.63-4.83 30.27-4.7v-0.04c10.64-0.13 21.94 0.91 30.27 4.71c4.65 2.12 9.88 6.19 9.62 11.49c0.36 11.64-3.42 23.23-11.34 34.79c-2.75 4.29-7.69 6.76-12.02 8.53c-5.09 2.08-10.9 2.76-16.52 2.86v0.04c-5.63-0.1-11.43-0.78-16.52-2.85c-4.33-1.77-9.27-4.25-12.01-8.53c-7.92-11.56-11.7-23.15-11.34-34.79z" />
							</g>
							<g id="&lt;Group&gt;">
								<path id="&lt;Path&gt;" class="s10" d="m715.09 530.93c-2.75 4.29-7.69 6.76-12.02 8.53c-5.09 2.07-10.9 2.75-16.53 2.85v-0.04c-5.63-0.1-11.43-0.78-16.53-2.86c-4.33-1.77-9.27-4.24-12.02-8.53c-7.92-11.56-11.7-23.16-11.34-34.79c-0.27-5.3 4.96-9.36 9.61-11.49c8.33-3.8 19.63-4.84 30.27-4.71v0.04c10.64-0.13 21.94 0.9 30.27 4.7c4.65 2.12 9.88 6.18 9.61 11.5c0.36 11.63-3.42 23.23-11.34 34.79z" />
							</g>
						</g>
					</g>
					<path id="&lt;Path&gt;" class="s1" d="m469.02 838.73v-51.38c2.17-23.13 13.01-37.94 32.53-44.44l101.76-28.19h52.94l125.98 31.75c16.3 7.35 27.79 21.87 34.5 43.56v48.7h-347.71z" />
					<path id="&lt;Path&gt;" class="s2" d="m828.1 838.73h-380.88l12.46-50.33c6.23-24.92 20.18-40.08 41.87-45.5l86.5-23.96c7.81 13.76 22.61 23.22 39.31 23.22h2.35c17.09 0 32.21-9.93 39.86-24.22l107.64 25.96c19.17 3.79 32.34 19.17 39.52 46.13l11.37 48.7z" />
					<path id="&lt;Path&gt;" class="s3" d="m759.23 838.73c11.96 40.47 11.77 47.36 30.34 99.2l-25.17 8.64l-31.99-107.84h26.81z" />
					<path id="&lt;Path&gt;" class="s2" d="m511.57 966.59l6.59-128.09l241.08 0.22l3.29 127.86h-250.95z" />
				</g>
				<g id="&lt;Group&gt;">
					<g id="&lt;Group&gt;">
						<g id="&lt;Group&gt;">
							<path id="&lt;Path&gt;" class="s11" d="m844.23 1068c0 4.35-3.52 7.87-7.87 7.87h-398.19c-4.35 0-7.87-3.52-7.87-7.87l-22.29-270.79c0-4.35 3.53-7.87 7.87-7.87h442.77c4.35 0 7.87 3.52 7.87 7.87l-22.29 270.79z" />
						</g>
					</g>
					<g id="&lt;Group&gt;">
						<path id="&lt;Path&gt;" class="s12" d="m852.19 1106.58h-429.85v-30.71h429.85v30.71z" />
					</g>
					<path id="&lt;Path&gt;" class="s12" d="m673.34 919.31c0 19.92-16.15 36.08-36.08 36.08c-19.92 0-36.08-16.15-36.08-36.08c0-19.93 16.15-36.08 36.08-36.08c19.93 0 36.08 16.15 36.08 36.08z" />
				</g>
			</g>
			<g id="&lt;Group&gt;">
				<path id="&lt;Path&gt;" class="s13" d="m1168.78 318.49c0 41.2-33.4 74.6-74.6 74.6c-41.2 0-74.6-33.4-74.6-74.6c0-41.2 33.4-74.6 74.6-74.6c41.2 0 74.6 33.4 74.6 74.6z" />
				<path id="&lt;Path&gt;" class="s14" d="m239.06 254.37c0 41.2-33.4 74.6-74.6 74.6c-41.2 0-74.6-33.4-74.6-74.6c0-41.2 33.4-74.6 74.6-74.6c41.2 0 74.6 33.4 74.6 74.6z" />
				<path id="&lt;Path&gt;" class="s15" d="m464.49 633.64c0 41.2-33.4 74.6-74.6 74.6c-41.2 0-74.6-33.4-74.6-74.6c0-41.2 33.4-74.6 74.6-74.6c41.2 0 74.6 33.4 74.6 74.6z" />
				<path id="&lt;Path&gt;" class="s16" d="m669.85 175.94c0 41.2-33.4 74.6-74.6 74.6c-41.2 0-74.6-33.4-74.6-74.6c0-41.2 33.4-74.6 74.6-74.6c41.2 0 74.6 33.4 74.6 74.6z" />
				<g id="&lt;Group&gt;">
					<path id="&lt;Compound Path&gt;" class="s17" d="m892.16 183.99v-4.57l22.92-9.73v5.06l-17.76 6.96l17.76 6.96v5.06l-22.92-9.73z" />
					<path id="&lt;Compound Path&gt;" class="s17" d="m932.84 198.4v-14.84c0-3.6-1.22-4.72-4.09-4.72c-3.16 0-4.92 2.63-4.92 5.84v13.72h-6.33v-32.7h6.33v11.87c0.93-2.14 3.84-3.75 7.06-3.75c4.91 0 8.32 2.87 8.32 7.64v16.93h-6.38z" />
					<path id="&lt;Compound Path&gt;" class="s17" d="m955.33 182.63h5.89v6.81c0 5.06-2.92 9.59-9.68 9.59c-7.01 0-9.78-4.48-9.78-9.64v-21.41h6.23v6.47h13.24v4.48h-13.24v9.83c0 3.02 1.07 4.77 3.65 4.77c2.53 0 3.7-1.7 3.7-4.67v-6.23z" />
					<path id="&lt;Compound Path&gt;" class="s17" d="m991.58 198.4v-14.5c0-2.87-1.51-4.91-3.75-4.91c-2.33 0-4.04 2.19-4.04 5.11v14.31h-6.33v-14.41c0-3.84-1.02-4.82-3.8-4.82c-2.53 0-3.84 1.56-3.84 4.67v14.55h-6.33v-23.94h5.94v3.5c1.61-3.16 3.85-4.14 7.01-4.14c3.26 0 4.82 1.02 6.67 3.8c1.31-2.63 3.45-3.8 6.47-3.8c4.82 0 8.17 3.5 8.17 7.98v16.59h-6.18z" />
					<path id="&lt;Compound Path&gt;" class="s17" d="m1000.3 198.4v-32.7h6.33v32.7h-6.33z" />
					<path id="&lt;Compound Path&gt;" class="s17" d="m1008.97 193.73v-5.06l17.76-6.96l-17.76-6.96v-5.06l22.92 9.73v4.57l-22.92 9.73z" />
				</g>
				<g id="&lt;Group&gt;">
					<path id="&lt;Compound Path&gt;" class="s17" d="m988.84 506.12v-4.57l22.92-9.73v5.06l-17.76 6.96l17.76 6.96v5.06l-22.92-9.73z" />
					<path id="&lt;Compound Path&gt;" class="s17" d="m1029.53 520.52v-14.84c0-3.6-1.22-4.72-4.09-4.72c-3.16 0-4.92 2.63-4.92 5.84v13.72h-6.33v-32.7h6.33v11.87c0.93-2.14 3.84-3.74 7.06-3.74c4.91 0 8.32 2.87 8.32 7.64v16.93h-6.38z" />
					<path id="&lt;Compound Path&gt;" class="s17" d="m1052.01 504.76h5.89v6.81c0 5.06-2.92 9.59-9.68 9.59c-7.01 0-9.78-4.48-9.78-9.63v-21.41h6.23v6.47h13.24v4.48h-13.24v9.83c0 3.01 1.07 4.77 3.65 4.77c2.53 0 3.7-1.7 3.7-4.67v-6.23z" />
					<path id="&lt;Compound Path&gt;" class="s17" d="m1088.27 520.52v-14.5c0-2.87-1.51-4.92-3.75-4.92c-2.33 0-4.04 2.19-4.04 5.11v14.31h-6.33v-14.4c0-3.84-1.02-4.82-3.8-4.82c-2.53 0-3.84 1.56-3.84 4.67v14.55h-6.33v-23.94h5.94v3.5c1.61-3.16 3.85-4.13 7.01-4.13c3.26 0 4.82 1.02 6.67 3.79c1.31-2.63 3.45-3.79 6.47-3.79c4.82 0 8.17 3.5 8.17 7.98v16.59h-6.18z" />
					<path id="&lt;Compound Path&gt;" class="s17" d="m1096.99 520.52v-32.7h6.33v32.7h-6.33z" />
					<path id="&lt;Compound Path&gt;" class="s17" d="m1105.9 507.82l0.68-19.61h19.9v5.35h-14.26l-0.29 8.66c1.7-1.8 4.04-2.29 6.42-2.29c5.26 0 9.34 3.7 9.34 10.17c0 6.96-4.57 11.53-11.14 11.53c-5.89 0-10.51-3.89-10.75-9.44h6.33c0.24 2.68 1.9 4.28 4.43 4.28c3.5 0 4.82-2.43 4.82-6.08c0-3.36-1.46-5.35-4.43-5.35c-2.29 0-3.65 0.98-4.53 2.77h-6.52z" />
					<path id="&lt;Compound Path&gt;" class="s17" d="m1129.26 515.85v-5.06l17.76-6.96l-17.76-6.96v-5.06l22.92 9.73v4.57l-22.92 9.73z" />
				</g>
				<g id="&lt;Group&gt;">
					<path id="&lt;Compound Path&gt;" class="s17" d="m1033.79 734.42v-4.57l22.92-9.73v5.06l-17.76 6.96l17.76 6.96v5.06l-22.92-9.73z" />
					<path id="&lt;Compound Path&gt;" class="s17" d="m1073.55 732.13c-0.29-2.19-1.56-3.16-4.28-3.16c-2.58 0-3.94 0.54-3.94 2.04c0 1.31 1.37 1.99 3.89 2.67c8.37 2.29 11.09 2.72 11.09 8.32c0 4.28-3.65 7.45-10.61 7.45c-6.86 0-11.29-3.26-11.38-8.32h6.52c0 2.24 1.99 3.55 4.82 3.55c2.38 0 4.38-0.73 4.38-2.29c0-1.75-1.27-2.33-3.85-2.92c-9.29-2.05-10.99-4.43-10.99-8.47c0-3.6 2.77-6.76 10.27-6.76c6.86 0 9.88 2.97 10.17 7.88h-6.08z" />
					<path id="&lt;Compound Path&gt;" class="s17" d="m1103.43 740.16c-0.68 5.55-5.21 9.3-11 9.3c-6.52 0-10.99-4.33-10.99-12.9c0-8.56 4.48-12.31 11.19-12.31c6.23 0 10.46 3.55 10.85 9.2h-6.38c-0.34-2.48-2.14-3.94-4.53-3.94c-2.67 0-4.87 1.7-4.87 6.91c0 5.21 2.19 7.74 4.67 7.74c2.48 0 4.43-1.41 4.67-3.99h6.38z" />
					<path id="&lt;Compound Path&gt;" class="s17" d="m1105.05 748.82v-23.94h5.94v2.87c2.09-3.21 4.53-3.5 7.1-3.5h0.83v6.47c-0.59-0.1-1.17-0.15-1.75-0.15c-3.89 0-5.79 1.95-5.79 5.79v12.46h-6.33z" />
					<path id="&lt;Compound Path&gt;" class="s17" d="m1120.52 722.01v-5.89h6.33v5.89h-6.33zm0 26.81v-23.94h6.33v23.94h-6.33z" />
					<path id="&lt;Compound Path&gt;" fill-rule="evenodd" class="s17" d="m1129.53 760.16v-35.28h6.08l0.05 2.92c1.51-2.43 3.75-3.55 6.67-3.55c6.04 0 10.37 4.77 10.37 12.85c0 7.25-3.65 12.36-9.83 12.36c-2.97 0-5.3-1.22-7.1-3.75v14.45h-6.23zm16.74-23.5c0-4.28-2.24-7.25-5.4-7.25c-3.02 0-5.35 2.82-5.35 6.86c0 5.21 1.8 7.78 5.3 7.78c3.7 0 5.45-2.48 5.45-7.4z" />
					<path id="&lt;Compound Path&gt;" class="s17" d="m1168.32 733.05h5.89v6.81c0 5.06-2.92 9.59-9.68 9.59c-7.01 0-9.78-4.48-9.78-9.64v-21.41h6.23v6.47h13.23v4.48h-13.23v9.83c0 3.02 1.07 4.77 3.65 4.77c2.53 0 3.7-1.71 3.7-4.67v-6.23z" />
					<path id="&lt;Compound Path&gt;" class="s17" d="m1176.35 744.15v-5.06l17.76-6.96l-17.76-6.96v-5.06l22.92 9.73v4.57l-22.92 9.73z" />
				</g>
				<g id="&lt;Group&gt;">
					<path id="&lt;Compound Path&gt;" class="s17" d="m89.65 558.49v-4.57l22.92-9.73v5.06l-17.76 6.96l17.76 6.96v5.06l-22.92-9.73z" />
					<path id="&lt;Compound Path&gt;" fill-rule="evenodd" class="s17" d="m115.01 584.24v-35.28h6.08l0.05 2.92c1.51-2.43 3.75-3.55 6.67-3.55c6.03 0 10.36 4.77 10.36 12.85c0 7.25-3.65 12.36-9.83 12.36c-2.97 0-5.31-1.22-7.1-3.75v14.45h-6.23zm16.74-23.51c0-4.28-2.24-7.25-5.4-7.25c-3.02 0-5.35 2.82-5.35 6.86c0 5.21 1.8 7.78 5.3 7.78c3.7 0 5.45-2.48 5.45-7.4z" />
					<path id="&lt;Compound Path&gt;" class="s17" d="m155.55 572.9v-14.84c0-3.6-1.22-4.72-4.09-4.72c-3.16 0-4.92 2.63-4.92 5.84v13.72h-6.33v-32.7h6.33v11.87c0.93-2.14 3.84-3.75 7.06-3.75c4.91 0 8.32 2.87 8.32 7.64v16.93h-6.38z" />
					<path id="&lt;Compound Path&gt;" fill-rule="evenodd" class="s17" d="m164.46 584.24v-35.28h6.08l0.05 2.92c1.51-2.43 3.75-3.55 6.67-3.55c6.04 0 10.37 4.77 10.37 12.85c0 7.25-3.65 12.36-9.83 12.36c-2.97 0-5.3-1.22-7.1-3.75v14.45h-6.23zm16.74-23.51c0-4.28-2.24-7.25-5.4-7.25c-3.02 0-5.35 2.82-5.35 6.86c0 5.21 1.8 7.78 5.3 7.78c3.7 0 5.45-2.48 5.45-7.4z" />
					<path id="&lt;Compound Path&gt;" class="s17" d="m189.52 568.23v-5.06l17.76-6.96l-17.76-6.96v-5.06l22.92 9.73v4.57l-22.92 9.73z" />
				</g>
				<g id="&lt;Group&gt;">
					<path id="&lt;Compound Path&gt;" class="s17" d="m261.74 190.24v-4.57l22.92-9.73v5.06l-17.76 6.96l17.76 6.96v5.06l-22.92-9.73z" />
					<path id="&lt;Compound Path&gt;" fill-rule="evenodd" class="s17" d="m303.69 204.65l-0.05-2.92c-1.51 2.43-3.75 3.55-6.66 3.55c-6.04 0-10.37-4.77-10.37-12.84c0-7.25 3.65-12.36 9.83-12.36c2.97 0 5.31 1.22 7.1 3.75v-11.87h6.23v32.7h-6.08zm0.1-11.38c0-5.21-1.8-7.79-5.3-7.79c-3.7 0-5.45 2.48-5.45 7.4c0 4.28 2.24 7.25 5.4 7.25c3.02 0 5.35-2.82 5.35-6.86z" />
					<path id="&lt;Compound Path&gt;" class="s17" d="m312.46 177.83v-5.89h6.33v5.89h-6.33zm0 26.81v-23.94h6.33v23.94h-6.33z" />
					<path id="&lt;Compound Path&gt;" class="s17" d="m328.91 204.65l-8.56-23.94h7.05l5.01 15.81l5.06-15.81h6.67l-8.61 23.94h-6.62z" />
					<path id="&lt;Compound Path&gt;" class="s17" d="m345.46 199.98v-5.06l17.76-6.96l-17.76-6.96v-5.06l22.92 9.73v4.57l-22.92 9.73z" />
				</g>
				<g id="&lt;Group&gt;">
					<g id="&lt;Group&gt;">
						<g id="&lt;Group&gt;">
							<path id="&lt;Path&gt;" class="s18" d="m422.44 320.9l-36.23-21.6l36.23-21.6" />
						</g>
						<g id="&lt;Group&gt;">
							<path id="&lt;Path&gt;" class="s18" d="m452.29 277.71l36.23 21.6l-36.23 21.6" />
						</g>
						<path id="&lt;Path&gt;" class="s18" d="m449.7 248.68l-24.67 101.25" />
					</g>
				</g>
				<g id="&lt;Group&gt;">
					<path id="&lt;Compound Path&gt;" fill-rule="evenodd" class="s18" d="m919.11 647.95c-1.27 2.53-2.71 4.95-4.32 7.25c-12.04-1.2-16.42 3.12-15.4 15.17c-2.32 1.57-4.77 2.98-7.31 4.21c-9.95-6.93-16.05-5.27-21.52 5.69c-1.48 0.1-2.97 0.16-4.47 0.16c-1.51-0.01-3-0.1-4.48-0.22c-5.31-11.05-11.39-12.78-21.44-6c-2.53-1.27-4.95-2.71-7.25-4.32c1.2-12.04-3.12-16.42-15.18-15.39c-1.57-2.33-2.98-4.77-4.21-7.32c6.93-9.95 5.27-16.05-5.69-21.52c-0.1-1.48-0.17-2.97-0.15-4.48c0.01-1.51 0.09-3 0.22-4.47c11.04-5.31 12.78-11.39 6-21.43c1.27-2.53 2.71-4.95 4.31-7.25c12.04 1.2 16.42-3.12 15.4-15.18c2.32-1.57 4.77-2.98 7.31-4.21c9.95 6.93 16.05 5.28 21.52-5.69c1.48-0.1 2.97-0.16 4.47-0.15c1.51 0.01 3 0.1 4.47 0.22c5.31 11.04 11.38 12.78 21.44 6c2.53 1.27 4.95 2.71 7.25 4.32c-1.2 12.04 3.12 16.42 15.17 15.4c1.57 2.33 2.98 4.77 4.21 7.32c-6.93 9.95-5.28 16.05 5.69 21.52c0.1 1.48 0.17 2.97 0.16 4.47c-0.01 1.51-0.1 3-0.22 4.48c-11.04 5.31-12.78 11.39-6 21.43zm-22.33-26.12c0.12-16.72-13.33-30.37-30.05-30.49c-16.72-0.12-30.37 13.33-30.49 30.05c-0.12 16.71 13.33 30.37 30.05 30.49c16.72 0.12 30.37-13.34 30.49-30.05z" />
				</g>
				<g id="&lt;Group&gt;">
					<g id="&lt;Group&gt;">
						<path id="&lt;Path&gt;" class="s18" d="m813.14 255.07c0 17.47-14.16 31.64-31.63 31.64c-17.47 0-31.63-14.16-31.63-31.64c0-17.47 14.17-31.63 31.63-31.63c17.47 0 31.63 14.16 31.63 31.63z" />
						<path id="&lt;Path&gt;" class="s18" d="m798 240.98c11.8 13.8 1.64 35.79-16.5 35.79" />
						<path id="&lt;Path&gt;" class="s18" d="m781.5 233.38c3.3 0 6.58 0.75 9.54 2.2" />
						<path id="&lt;Path&gt;" class="s18" d="m824.34 255.07c0 23.66-19.18 42.84-42.84 42.84c-23.65 0-42.83-19.18-42.83-42.84c0-23.66 19.18-42.83 42.83-42.83c23.66 0 42.84 19.18 42.84 42.83z" />
						<path id="&lt;Path&gt;" class="s18" d="m786.02 312.75h-9.03v-15.1h9.03v15.1z" />
						<path id="&lt;Path&gt;" class="s18" d="m792.3 364.46h-21.59v-51.71h21.59v51.71z" />
					</g>
				</g>
				<g id="&lt;Group&gt;">
					<g id="&lt;Group&gt;">
						<path id="&lt;Path&gt;" class="s18" d="m733.94 193.61c0 14.5-11.75 26.25-26.25 26.25h-101.65c-14.5 0-26.25-11.75-26.25-26.25c0-14.5 11.75-26.25 26.25-26.25c1.22 0 2.43 0.11 3.61 0.28c-2.28-3.89-3.61-8.4-3.61-13.24c0-14.5 11.75-26.25 26.25-26.25c14.3 0 25.9 11.43 26.22 25.65c4.78-4.98 11.49-8.1 18.94-8.1c13.07 0 23.87 9.56 25.89 22.06c1.42-0.24 2.87-0.39 4.35-0.39c14.5 0 26.25 11.75 26.25 26.25z" />
						<path id="&lt;Path&gt;" class="s18" d="m620.35 207.17c4.51 0 9.01 0 13.52 0" />
						<path id="&lt;Path&gt;" class="s18" d="m612.65 207.17c-6.83 0-13.74 0.27-18.06-6.23c-6.04-9.1 0.71-21.65 11.61-21.65" />
					</g>
				</g>
				<g id="&lt;Group&gt;">
					<g id="&lt;Group&gt;">
						<path id="&lt;Path&gt;" class="s18" d="m389.89 658.45c0 25.33-26.33 45.86-58.81 45.86c-4.46 0-8.79-0.4-12.96-1.13l-37.9 12.14l7.53-25.87c-9.61-8.16-15.48-19.05-15.48-31c0-25.33 26.33-45.86 58.81-45.86c32.48 0 58.81 20.53 58.81 45.86z" />
						<path id="&lt;Path&gt;" class="s18" d="m297.57 642.97h67.01" />
						<path id="&lt;Path&gt;" class="s18" d="m297.57 659.58h67.01" />
						<path id="&lt;Path&gt;" class="s18" d="m297.57 676.18h67.01" />
					</g>
				</g>
				<g id="&lt;Group&gt;">
					<g id="&lt;Group&gt;">
						<path id="&lt;Path&gt;" class="s18" d="m182.13 714.48v101.06h-87.77v-114.35h73.02c1.98 1.89 3.98 3.76 6.05 5.6c2.9 2.57 5.81 5.12 8.7 7.69z" />
						<path id="&lt;Path&gt;" class="s19" d="m182.13 714.48v3.2h-14.75v-16.49l14.75 13.29z" />
						<g id="&lt;Group&gt;">
							<path id="&lt;Path&gt;" class="s18" d="m110.22 734.59h57.16" />
							<path id="&lt;Path&gt;" class="s18" d="m110.22 751.2h57.16" />
							<path id="&lt;Path&gt;" class="s18" d="m110.22 767.8h57.16" />
							<path id="&lt;Path&gt;" class="s18" d="m110.22 784.41h57.16" />
						</g>
					</g>
				</g>
				<g id="&lt;Group&gt;">
					<g id="&lt;Group&gt;">
						<path id="&lt;Path&gt;" class="s18" d="m198.06 316.05c0 33.04-26.78 59.82-59.82 59.82c-33.04 0-59.82-26.78-59.82-59.82c0-33.04 26.78-59.82 59.82-59.82c33.04 0 59.82 26.78 59.82 59.82z" />
						<path id="&lt;Path&gt;" class="s18" d="m161.1 316.05c0 33.04-10.23 59.82-22.85 59.82c-12.62 0-22.85-26.78-22.85-59.82c0-33.04 10.23-59.82 22.85-59.82c12.62 0 22.85 26.78 22.85 59.82z" />
						<path id="&lt;Path&gt;" class="s18" d="m78.42 316.05h123.59" />
						<path id="&lt;Path&gt;" class="s18" d="m178.8 272.08c-8.02 14.09-23.17 23.61-40.55 23.61c-17.38 0-32.53-9.51-40.55-23.61" />
						<path id="&lt;Path&gt;" class="s18" d="m97.7 360.02c8.02-14.09 23.17-23.61 40.55-23.61c17.38 0 32.53 9.51 40.55 23.61" />
					</g>
				</g>
				<g id="&lt;Group&gt;">
					<g id="&lt;Group&gt;">
						<g id="&lt;Group&gt;">
							<path id="&lt;Compound Path&gt;" fill-rule="evenodd" class="s17" d="m284.04 392.77c0 2.29-0.81 4.23-2.42 5.83c-1.61 1.59-3.54 2.39-5.8 2.39c-2.29 0-4.24-0.8-5.84-2.41c-1.61-1.61-2.41-3.54-2.41-5.81v-18.8c0-2.29 0.81-4.24 2.42-5.84c1.61-1.6 3.55-2.4 5.82-2.4c2.29 0 4.23 0.81 5.83 2.42c1.59 1.61 2.39 3.55 2.39 5.83v18.8zm-5.39-18.91c0-0.82-0.29-1.53-0.88-2.12c-0.59-0.59-1.29-0.88-2.12-0.88c-0.82 0-1.53 0.29-2.1 0.88c-0.57 0.59-0.86 1.29-0.86 2.12v18.83c0 0.82 0.29 1.53 0.86 2.12c0.58 0.59 1.28 0.88 2.1 0.88c0.82 0 1.53-0.29 2.12-0.88c0.59-0.59 0.88-1.29 0.88-2.12v-18.83z" />
							<path id="&lt;Compound Path&gt;" class="s17" d="m295.61 400.63v-26.52h-4.43v-3.63c1.25-0.15 2.43-0.62 3.56-1.42c1.13-0.79 1.94-1.76 2.43-2.9h3.63v34.46h-5.2z" />
							<path id="&lt;Compound Path&gt;" fill-rule="evenodd" class="s17" d="m324.41 392.77c0 2.29-0.81 4.23-2.42 5.83c-1.61 1.59-3.55 2.39-5.8 2.39c-2.29 0-4.24-0.8-5.84-2.41c-1.61-1.61-2.41-3.54-2.41-5.81v-18.8c0-2.29 0.81-4.24 2.42-5.84c1.61-1.6 3.55-2.4 5.82-2.4c2.29 0 4.23 0.81 5.83 2.42c1.59 1.61 2.39 3.55 2.39 5.83v18.8zm-5.39-18.91c0-0.82-0.29-1.53-0.88-2.12c-0.59-0.59-1.29-0.88-2.11-0.88c-0.82 0-1.53 0.29-2.1 0.88c-0.58 0.59-0.86 1.29-0.86 2.12v18.83c0 0.82 0.29 1.53 0.86 2.12c0.58 0.59 1.28 0.88 2.1 0.88c0.82 0 1.53-0.29 2.11-0.88c0.59-0.59 0.88-1.29 0.88-2.12v-18.83z" />
							<path id="&lt;Compound Path&gt;" class="s17" d="m335.98 400.63v-26.52h-4.43v-3.63c1.25-0.15 2.43-0.62 3.56-1.42c1.13-0.79 1.94-1.76 2.43-2.9h3.63v34.46h-5.19z" />
						</g>
						<g id="&lt;Group&gt;">
							<path id="&lt;Compound Path&gt;" class="s17" d="m272 440.64v-27.98h-4.42v-3.83c1.24-0.16 2.43-0.65 3.56-1.49c1.13-0.84 1.94-1.86 2.43-3.06h3.63v36.35h-5.19z" />
							<path id="&lt;Compound Path&gt;" fill-rule="evenodd" class="s17" d="m300.81 432.35c0 2.41-0.81 4.46-2.42 6.15c-1.61 1.68-3.55 2.52-5.8 2.52c-2.29 0-4.24-0.85-5.84-2.54c-1.6-1.69-2.41-3.74-2.41-6.13v-19.83c0-2.41 0.81-4.47 2.42-6.16c1.61-1.69 3.55-2.54 5.83-2.54c2.29 0 4.23 0.85 5.82 2.55c1.6 1.7 2.4 3.75 2.4 6.14v19.83zm-5.39-19.95c0-0.87-0.29-1.61-0.88-2.23c-0.59-0.62-1.29-0.93-2.12-0.93c-0.82 0-1.53 0.31-2.1 0.93c-0.58 0.62-0.86 1.37-0.86 2.23v19.86c0 0.87 0.29 1.61 0.86 2.23c0.58 0.62 1.28 0.93 2.1 0.93c0.83 0 1.53-0.31 2.12-0.93c0.59-0.62 0.88-1.36 0.88-2.23v-19.86z" />
							<path id="&lt;Compound Path&gt;" class="s17" d="m312.38 440.64v-27.98h-4.42v-3.83c1.25-0.16 2.43-0.65 3.56-1.49c1.13-0.84 1.94-1.86 2.43-3.06h3.63v36.35h-5.19z" />
							<path id="&lt;Compound Path&gt;" fill-rule="evenodd" class="s17" d="m341.17 432.35c0 2.41-0.81 4.46-2.42 6.15c-1.61 1.68-3.54 2.52-5.8 2.52c-2.29 0-4.24-0.85-5.84-2.54c-1.61-1.69-2.41-3.74-2.41-6.13v-19.83c0-2.41 0.81-4.47 2.42-6.16c1.61-1.69 3.56-2.54 5.82-2.54c2.29 0 4.23 0.85 5.83 2.55c1.6 1.7 2.39 3.75 2.39 6.14v19.83zm-5.38-19.95c0-0.87-0.29-1.61-0.88-2.23c-0.59-0.62-1.29-0.93-2.12-0.93c-0.82 0-1.52 0.31-2.1 0.93c-0.58 0.62-0.86 1.37-0.86 2.23v19.86c0 0.87 0.29 1.61 0.86 2.23c0.58 0.62 1.28 0.93 2.1 0.93c0.83 0 1.53-0.31 2.12-0.93c0.59-0.62 0.88-1.36 0.88-2.23v-19.86z" />
						</g>
						<g id="&lt;Group&gt;">
							<path id="&lt;Compound Path&gt;" fill-rule="evenodd" class="s17" d="m284.04 474.75c0 2.42-0.81 4.46-2.42 6.15c-1.61 1.68-3.54 2.53-5.8 2.53c-2.29 0-4.24-0.85-5.84-2.54c-1.61-1.69-2.41-3.74-2.41-6.13v-19.83c0-2.42 0.81-4.47 2.42-6.16c1.61-1.69 3.55-2.54 5.82-2.54c2.29 0 4.23 0.85 5.83 2.55c1.59 1.7 2.39 3.75 2.39 6.15v19.83zm-5.39-19.95c0-0.87-0.29-1.61-0.88-2.23c-0.59-0.62-1.29-0.93-2.12-0.93c-0.82 0-1.53 0.31-2.1 0.93c-0.57 0.62-0.86 1.36-0.86 2.23v19.86c0 0.87 0.29 1.61 0.86 2.23c0.58 0.62 1.28 0.93 2.1 0.93c0.82 0 1.53-0.31 2.12-0.93c0.59-0.62 0.88-1.36 0.88-2.23v-19.86z" />
							<path id="&lt;Compound Path&gt;" class="s17" d="m295.61 483.04v-27.98h-4.43v-3.82c1.25-0.16 2.43-0.66 3.56-1.49c1.13-0.84 1.94-1.86 2.43-3.06h3.63v36.35h-5.2z" />
							<path id="&lt;Compound Path&gt;" fill-rule="evenodd" class="s17" d="m327.98 474.75c0 2.42-0.81 4.46-2.42 6.15c-1.61 1.68-3.54 2.53-5.8 2.53c-2.29 0-4.24-0.85-5.84-2.54c-1.61-1.69-2.4-3.74-2.4-6.13v-19.83c0-2.42 0.81-4.47 2.42-6.16c1.61-1.69 3.55-2.54 5.82-2.54c2.29 0 4.23 0.85 5.83 2.55c1.59 1.7 2.39 3.75 2.39 6.15v19.83zm-5.38-19.95c0-0.87-0.29-1.61-0.88-2.23c-0.59-0.62-1.29-0.93-2.12-0.93c-0.82 0-1.53 0.31-2.1 0.93c-0.58 0.62-0.87 1.36-0.87 2.23v19.86c0 0.87 0.29 1.61 0.87 2.23c0.57 0.62 1.28 0.93 2.1 0.93c0.82 0 1.53-0.31 2.12-0.93c0.59-0.62 0.88-1.36 0.88-2.23v-19.86z" />
							<path id="&lt;Compound Path&gt;" class="s17" d="m336.61 483.04v-27.98h-4.42v-3.82c1.24-0.16 2.43-0.66 3.56-1.49c1.13-0.84 1.94-1.86 2.43-3.06h3.63v36.35h-5.19z" />
						</g>
					</g>
				</g>
				<g id="&lt;Group&gt;">
					<g id="&lt;Group&gt;">
						<path id="&lt;Path&gt;" class="s18" d="m1112.24 317.62v9.01v76.14h-109.12v-76.14h75.91v-9.01h33.21z" />
						<path id="&lt;Path&gt;" class="s18" d="m1003.12 396.13h-11.27v-89.91h112.08v11.4" />
					</g>
				</g>
			</g>
		</g>
	</g>
</svg>